<svg width="794" height="766" viewBox="0 0 794 766" fill="none" xmlns="http://www.w3.org/2000/svg">
<path d="M9.8218 502.514C17.8388 537.113 30.8376 569.949 48.2865 599.678C65.8118 629.178 86.9987 655.611 111.183 678.148C127.774 693.352 145.531 706.818 164.237 718.383L171.267 722.626C173.628 724.05 175.962 725.655 178.403 726.715L192.914 734.32L207.742 740.985C210.209 742.167 212.729 743.136 215.25 744.015L222.836 746.864C243.119 754.295 263.948 759.619 285.07 762.77C306.189 765.691 327.482 766.633 348.735 765.587C354.041 765.193 359.346 765.132 364.652 764.466L380.568 762.648L396.325 759.982C401.631 759.134 406.777 757.74 412.003 756.65C432.831 751.75 453.327 745.159 473.334 736.926C493.291 728.543 512.72 718.602 531.482 707.174L531.774 706.992C544.139 705.317 556.4 702.767 568.488 699.357C623.288 683.7 673.243 651.074 712.85 605.071C732.597 582.108 749.203 555.88 762.111 527.268C774.893 498.619 783.963 468.002 789.036 436.375C794.597 401.21 795.492 365.288 791.689 329.818C788.048 294.279 779.422 259.64 766.143 227.232C752.679 194.949 734.836 165.296 713.274 139.369C691.641 113.742 667.181 91.4372 640.51 73.017C613.887 54.7994 585.634 39.8891 556.232 28.5405C548.858 25.9349 541.562 22.9352 534.055 20.7235L522.887 17.1789L511.587 14.1492C504.106 11.9375 496.439 10.6045 488.852 8.90781C485.059 8.12009 481.266 7.21109 477.446 6.54453L465.933 4.81735C435.248 0.214019 404.252 -1.09391 373.352 0.90957C342.442 3.09414 311.796 8.75643 281.859 17.8151C251.853 26.8646 222.788 39.5823 195.168 55.7476C167.471 71.9392 141.676 92.0648 118.398 115.646C94.8768 139.062 74.3877 166.177 57.5446 196.177C40.5622 226.005 27.0688 258.242 17.4083 292.068C7.62754 325.873 1.89878 361.034 0.377901 396.594C-1.16464 432.243 2.01944 467.952 9.8218 502.514ZM465.403 686.178C421.078 679.191 378.852 660.225 342.236 630.854C324.002 616.226 307.273 599.293 292.365 580.378L286.9 573.198C285.096 570.774 283.213 568.442 281.594 565.866L271.594 550.718L262.548 534.812C259.63 529.419 257.242 523.783 254.377 518.299C233.784 473.494 223.006 423.656 222.969 373.053C223.026 319.831 235.537 267.593 259.206 221.748C278.018 184.681 303.009 152.185 332.766 126.098C326.824 132.461 321.173 139.126 315.815 146.095C280.712 192.694 259.273 250.682 254.51 311.913C252.038 342.401 254.183 373.148 260.85 402.805C267.684 432.533 279.199 460.591 294.832 485.608C326.292 535.446 370.751 572.638 421.844 591.861C447.225 601.563 473.841 606.385 500.605 606.131C527.484 605.841 554.081 599.852 579.045 588.468C628.837 565.806 670.751 523.753 698.711 472.186C699.957 469.914 701.124 467.581 702.291 465.278C701.973 466.369 701.629 467.43 701.31 468.52C700.674 470.611 700.09 472.702 699.4 474.731L697.225 480.791C695.713 484.851 694.44 489.002 692.742 492.91C686.407 508.981 679.058 524.504 670.751 539.356C662.375 554.208 653.169 568.426 643.189 581.924C633.115 595.383 622.371 608.17 611.011 620.22C599.555 632.194 587.548 643.46 575.04 653.971C562.459 664.39 549.427 674.077 535.992 682.996C534.373 684.057 532.756 685.056 531.138 686.026C509.327 689.379 487.225 689.43 465.403 686.178ZM373.644 115.403C377.146 113.01 380.488 110.404 384.255 108.253L395.026 101.709L406.193 96.013C409.907 94.1346 413.807 92.7406 417.627 91.0742C433.056 84.9809 449.024 80.8362 465.243 78.7133C497.771 74.5234 530.707 79.0564 561.432 91.9529C579.155 99.7264 595.698 110.636 610.454 124.281C598.171 117.53 585.331 112.192 572.122 108.344C547.903 101.043 522.651 99.333 497.846 103.314C481.865 105.804 466.378 111.41 452.059 119.887C442.165 125.947 437.522 131.037 437.602 132.885C437.682 134.733 445.03 131.34 457.498 126.825C474.126 120.765 491.409 117.36 508.854 116.706C531.23 115.94 553.558 119.526 574.881 127.311C595.361 134.688 614.677 145.754 632.1 160.092C638.258 165.138 644.124 170.634 649.662 176.544C663.064 201.665 671.594 229.777 674.677 258.983C676.582 277.338 676.153 295.91 673.403 314.125L670.751 327.576C669.663 332 668.31 336.302 667.143 340.695C664.52 349.34 661.217 357.696 657.275 365.661C640.935 397.733 616.37 423.304 586.897 438.92C572.31 446.819 556.725 452.044 540.714 454.402C532.798 455.555 524.811 455.93 516.839 455.523C508.863 455.093 500.941 453.805 493.177 451.675C462.06 443.585 435.055 419.772 417.308 389.262C408.362 373.954 401.669 357.078 397.492 339.302C393.352 321.628 392.049 303.243 393.646 285.039C395.359 267.018 400.443 249.629 408.554 234.048C416.959 218.689 428.216 205.625 441.528 195.782C468.701 175.792 501.336 167.84 533.286 173.423C548.988 176.082 563.965 182.74 577.109 192.904C583.546 198.013 589.416 203.995 594.591 210.72C599.737 217.492 604.122 224.972 607.642 232.988C621.834 265.224 622.444 304.853 611.462 339.029C606.048 356.08 597.459 371.585 586.287 384.475C580.731 390.825 574.492 396.342 567.718 400.896C560.888 405.367 553.646 408.964 546.125 411.622C521.481 419.772 493.733 417.681 471.477 403.956C465.939 400.594 460.751 396.529 456.012 391.837C454.845 390.656 453.784 389.323 452.669 388.111C451.53 386.896 450.45 385.611 449.433 384.263L446.568 380.173C446.09 379.476 445.586 378.81 445.135 378.113L443.915 375.87C437.168 363.894 433.004 350.261 431.766 336.09C430.558 321.907 432.126 307.595 436.355 294.189C440.412 281.041 447.731 269.525 457.418 261.043C467.05 252.635 478.879 248.174 491.001 248.379C503.474 248.387 515.744 251.981 526.68 258.832C527.768 259.528 530.102 261.104 531.217 262.013C536.032 265.699 540.48 269.976 544.48 274.768C547.133 277.798 548.486 279.494 549.468 280.494C551.484 282.494 552.12 281.524 555.091 286.554C557.67 291.263 559.787 296.283 561.405 301.521C561.968 303.901 562.864 306.162 564.058 308.217C564.668 308.762 565.092 307.58 565.304 304.46C565.503 299.41 564.947 294.359 563.659 289.523C561.505 280.88 557.832 272.829 552.863 265.861C545.842 255.881 536.973 247.8 526.893 242.198C513.71 234.616 498.994 231.185 484.263 232.261C472.953 233.064 462.003 237.119 452.43 244.047C450.441 245.592 448.558 247.288 446.621 248.955C444.63 250.607 442.782 252.474 441.103 254.53C439.248 256.466 437.536 258.574 435.984 260.831L431.872 266.891C430.678 269.011 429.537 271.193 428.37 273.344C427.813 274.435 427.15 275.465 426.672 276.617L425.24 280.04C424.338 282.342 423.25 284.585 422.587 286.978C419.42 296.486 417.36 306.428 416.459 316.548C416.3 319.093 416.247 321.638 416.141 324.153C416.141 325.426 416.009 326.698 416.141 327.971L416.301 331.788C416.433 334.333 416.433 336.878 416.725 339.393L417.707 346.967C419.224 357.013 422.021 366.75 426.009 375.87C431.001 387.298 437.904 397.499 446.329 405.896C455.677 415.19 466.477 422.386 478.162 427.104C503.46 437.149 530.987 437.149 556.285 427.104C575.5 419.475 592.499 405.94 605.414 387.989C607.589 385.172 609.42 382.112 611.356 379.143C613.293 376.174 614.99 373.083 616.529 370.054C628.187 347.261 634.636 321.484 635.283 295.098C635.696 280.971 634.384 266.849 631.384 253.136C628.268 239.08 623.189 225.688 616.343 213.476C609.381 201.147 600.551 190.333 590.266 181.543C580.069 172.846 568.674 166.15 556.55 161.728C544.734 157.301 532.425 154.823 519.996 154.366C507.903 153.842 495.8 154.981 483.945 157.759C461.237 163.074 439.965 174.499 421.897 191.086C403.343 208.32 389.779 231.553 382.982 257.741C376.466 283.679 375.791 311.077 381.019 337.393C386.138 363.482 396.087 388.017 410.199 409.349C424.341 430.906 442.809 448.268 464.05 459.976C485.566 471.237 509.189 476.233 532.808 474.519C556.179 472.757 578.985 465.538 599.817 453.311C620.637 441.189 639.19 424.548 654.437 404.32C662.047 394.129 668.681 383.038 674.226 371.236C677.011 365.352 679.482 359.281 681.627 353.057C683.723 346.786 685.341 340.362 687.198 334C693.139 308.132 694.59 281.185 691.469 254.681C690.673 247.712 689.559 240.774 688.206 233.927C689.108 235.775 690.01 237.623 690.859 239.562C704.813 270.822 713.36 304.861 716.033 339.817C716.537 346.119 716.802 352.42 716.961 358.753C712.645 397.469 700.68 434.558 681.972 467.218C660.117 505.954 629.992 537.702 594.431 559.473C576.753 570.207 557.813 577.973 538.194 582.53C528.398 584.716 518.478 586.102 508.51 586.68C498.513 587.16 488.5 586.897 478.534 585.893C438.372 581.244 399.914 564.966 366.8 538.599C333.447 512.689 306.863 476.945 289.871 435.163C273.597 393.073 268.079 346.585 273.954 301.066C278.505 263.9 289.634 228.181 306.663 196.086C315.179 180.135 325.137 165.247 336.373 151.669C347.549 138 360.053 125.833 373.644 115.403ZM21.4936 357.995C31.3992 287.9 57.8286 222.209 97.9457 167.969C106.877 155.997 116.482 144.702 126.701 134.158L143.122 118.161C148.905 113.101 154.9 108.193 160.869 103.012C186.178 82.9395 213.501 66.4005 242.254 53.7482C271.949 40.6732 302.82 31.3956 334.304 26.0862C394.703 15.7553 456.293 19.1532 515.539 36.0846C540.949 43.2898 565.731 53.1265 589.577 65.4729C609.115 75.49 627.875 87.3788 645.656 101.012C649.555 103.86 653.057 107.072 656.532 109.799L661.572 113.949C663.164 115.343 664.676 116.797 666.188 118.13L674.624 125.887C677.276 128.341 679.531 130.855 681.733 133.067C689.187 140.338 695.66 148.216 701.761 155.032C707.862 161.849 712.929 168.788 716.855 174.908C723.438 184.336 729.541 194.188 735.133 204.418L743.091 220.02C745.452 225.444 747.786 230.898 750.147 236.321C759.043 258.536 765.734 281.817 770.096 305.732C774.504 329.905 776.445 354.581 775.878 379.264C775.441 404.12 772.585 428.843 767.363 452.978C756.583 501.706 735.381 546.616 705.66 583.681C690.6 602.181 673.734 618.649 655.391 632.763C636.999 647.02 617.196 658.745 596.394 667.696C590.134 670.392 583.768 672.786 577.375 674.998C580.027 672.817 582.68 670.665 585.333 668.423C619.899 639.689 650.213 604.82 675.127 565.139C700.295 525.259 717.986 479.877 727.095 431.83C731.012 409.897 732.932 387.56 732.824 365.176C733.709 357.905 734.31 350.593 734.629 343.241L734.894 337.514L734.894 326.062L734.655 320.336C734.443 316.518 734.417 312.701 734.019 308.913L732.904 297.522C730.988 282.422 727.962 267.534 723.859 253.015C719.648 238.58 714.422 224.557 708.234 211.083C702.059 197.666 694.963 184.831 687.012 172.696C683.112 166.637 678.841 160.759 674.597 154.942C670.353 149.124 665.79 143.671 661.015 138.399C623.39 95.2182 575.52 65.56 523.311 53.0818C495.468 46.6882 466.837 46.144 438.822 51.4759C424.874 54.1062 411.146 58.079 397.784 63.3523C384.484 68.7082 371.562 75.2208 359.134 82.8333C346.714 90.4061 334.836 99.0883 323.613 108.798C312.37 118.417 301.733 128.926 291.781 140.248C271.891 162.965 254.842 188.708 241.114 216.749C227.3 244.79 217.164 274.995 211.031 306.399C207.973 322.129 206.048 338.119 205.275 354.208C204.452 370.243 204.692 386.327 205.992 402.321C208.508 434.341 214.992 465.79 225.25 495.727C235.698 525.611 249.888 553.605 267.376 578.834C302.519 629.379 349.238 667.814 402.347 689.874C428.826 700.901 456.595 707.364 484.741 709.052C486.597 709.052 488.455 709.052 490.338 709.234C477.366 715.566 464.156 721.353 450.733 726.2C421.11 736.825 390.535 743.613 359.585 746.439C328.697 749.001 297.65 747.067 267.19 740.683C259.657 738.744 252.043 737.289 244.642 734.623L233.5 731.108L222.518 726.928L217.027 724.837C215.223 724.11 213.445 723.231 211.721 722.444L200.951 717.565C197.396 715.899 193.921 713.9 190.34 712.112C186.759 710.325 183.284 708.537 179.915 706.355C173.124 702.205 166.201 698.266 159.701 693.509C156.412 691.207 153.042 689.025 149.833 686.601L140.283 679.118C138.718 677.876 137.1 676.664 135.535 675.361L130.972 671.331L121.82 663.273L113.093 654.637C110.148 651.608 107.23 648.881 104.551 645.73C82.1226 621.641 63.3038 593.516 48.8435 562.473C34.3521 531.508 24.7529 497.868 20.4859 463.097C16.1808 428.208 16.4934 392.778 21.4139 357.995L21.4936 357.995Z" fill="black"/>
</svg>
